<svg xmlns="http://www.w3.org/2000/svg" width="24" height="24" viewBox="0 0 180 180" fill="none">
  <defs>
    <clipPath id="c"><circle cx="90" cy="90" r="78"/></clipPath>
  </defs>
  <circle cx="90" cy="90" r="78" stroke="currentColor" stroke-width="4" fill="none"/>
  <g clip-path="url(#c)" stroke="currentColor" stroke-linecap="round">
    <line x1="30.8" y1="140.7" x2="140.7" y2="30.8" stroke-width="0.22"/>
    <line x1="34.8" y1="145.2" x2="145.2" y2="34.8" stroke-width="0.95"/>
    <line x1="39.3" y1="149.2" x2="149.2" y2="39.3" stroke-width="1.69"/>
    <line x1="44.0" y1="153.0" x2="153.0" y2="44.0" stroke-width="2.42"/>
    <line x1="49.1" y1="156.4" x2="156.4" y2="49.1" stroke-width="3.16"/>
    <line x1="54.5" y1="159.4" x2="159.4" y2="54.5" stroke-width="3.89"/>
    <line x1="60.3" y1="162.1" x2="162.1" y2="60.3" stroke-width="4.63"/>
    <line x1="66.5" y1="164.4" x2="164.4" y2="66.5" stroke-width="5.36"/>
    <line x1="73.2" y1="166.2" x2="166.2" y2="73.2" stroke-width="6.09"/>
    <line x1="80.5" y1="167.4" x2="167.4" y2="80.5" stroke-width="6.83"/>
    <line x1="88.4" y1="168.0" x2="168.0" y2="88.4" stroke-width="7.56"/>
    <line x1="97.2" y1="167.7" x2="167.7" y2="97.2" stroke-width="8.30"/>
    <line x1="107.3" y1="166.1" x2="166.1" y2="107.3" stroke-width="9.03"/>
    <line x1="119.7" y1="162.1" x2="162.1" y2="119.7" stroke-width="9.77"/>
  </g>
</svg>
